<svg width="485" height="369" viewBox="0 0 485 369" fill="none" xmlns="http://www.w3.org/2000/svg">
<g filter="url(#filter0_d)">
<path d="M246.5 8H455C468.255 8 479 18.7452 479 32V332.75C479 346.005 468.255 356.75 455 356.75H246.5V8Z" fill="#FFFBF8"/>
<path d="M246.5 8H38C24.7452 8 14 18.7452 14 32V332.75C14 346.005 24.7452 356.75 38 356.75H246.5V8Z" fill="#FFFBF8"/>
<rect opacity="0.08" x="245.338" y="8" width="110.438" height="348.75" fill="url(#paint0_linear)"/>
<rect opacity="0.1" x="245.338" y="8" width="7.55625" height="345.844" fill="url(#paint1_linear)"/>
<rect opacity="0.8" x="95.375" y="11.4875" width="149.962" height="340.612" fill="url(#paint2_linear)"/>
<rect opacity="0.15" width="7.55625" height="344.681" transform="matrix(-1 0 0 1 245.338 8)" fill="url(#paint3_linear)"/>
</g>
<defs>
<filter id="filter0_d" x="0" y="0" width="485" height="368.75" filterUnits="userSpaceOnUse" color-interpolation-filters="sRGB">
<feFlood flood-opacity="0" result="BackgroundImageFix"/>
<feColorMatrix in="SourceAlpha" type="matrix" values="0 0 0 0 0 0 0 0 0 0 0 0 0 0 0 0 0 0 127 0"/>
<feOffset dx="-4" dy="2"/>
<feGaussianBlur stdDeviation="5"/>
<feColorMatrix type="matrix" values="0 0 0 0 0 0 0 0 0 0 0 0 0 0 0 0 0 0 0.25 0"/>
<feBlend mode="normal" in2="BackgroundImageFix" result="effect1_dropShadow"/>
<feBlend mode="normal" in="SourceGraphic" in2="effect1_dropShadow" result="shape"/>
</filter>
<linearGradient id="paint0_linear" x1="245.338" y1="270.228" x2="310.432" y2="264.84" gradientUnits="userSpaceOnUse">
<stop stop-color="#E5E5E5"/>
<stop offset="1" stop-color="#4D5863" stop-opacity="0"/>
</linearGradient>
<linearGradient id="paint1_linear" x1="245.338" y1="77.1687" x2="252.894" y2="77.1687" gradientUnits="userSpaceOnUse">
<stop stop-color="#0A1128"/>
<stop offset="0.515227" stop-color="#0D1944" stop-opacity="0.25"/>
<stop offset="1" stop-color="#0D1944" stop-opacity="0"/>
</linearGradient>
<linearGradient id="paint2_linear" x1="245.337" y1="159.84" x2="94.8017" y2="176.663" gradientUnits="userSpaceOnUse">
<stop stop-color="white" stop-opacity="0.3"/>
<stop offset="1" stop-color="white" stop-opacity="0"/>
</linearGradient>
<linearGradient id="paint3_linear" x1="-5.85504e-08" y1="68.9362" x2="7.55625" y2="68.9362" gradientUnits="userSpaceOnUse">
<stop stop-color="#1F1F1F"/>
<stop offset="1" stop-color="#C4C4C4" stop-opacity="0"/>
</linearGradient>
</defs>
</svg>
