<svg width="450" height="650" viewBox="0 0 450 650" fill="none" xmlns="http://www.w3.org/2000/svg">
<g filter="url(#filter0_dd)">
<path d="M19 19H407C413.627 19 419 24.3726 419 31V607C419 613.627 413.627 619 407 619H19V19Z" fill="#BBAEAE"/>
</g>
<path d="M181.5 550H180.408L176.016 543.34V550H174.924V541.624H176.016L180.408 548.272V541.624H181.5V550Z" fill="#373737"/>
<path d="M190.753 550.084C189.977 550.084 189.269 549.904 188.629 549.544C187.989 549.176 187.481 548.668 187.105 548.02C186.737 547.364 186.553 546.628 186.553 545.812C186.553 544.996 186.737 544.264 187.105 543.616C187.481 542.96 187.989 542.452 188.629 542.092C189.269 541.724 189.977 541.54 190.753 541.54C191.537 541.54 192.249 541.724 192.889 542.092C193.529 542.452 194.033 542.956 194.401 543.604C194.769 544.252 194.953 544.988 194.953 545.812C194.953 546.636 194.769 547.372 194.401 548.02C194.033 548.668 193.529 549.176 192.889 549.544C192.249 549.904 191.537 550.084 190.753 550.084ZM190.753 549.136C191.337 549.136 191.861 549 192.325 548.728C192.797 548.456 193.165 548.068 193.429 547.564C193.701 547.06 193.837 546.476 193.837 545.812C193.837 545.14 193.701 544.556 193.429 544.06C193.165 543.556 192.801 543.168 192.337 542.896C191.873 542.624 191.345 542.488 190.753 542.488C190.161 542.488 189.633 542.624 189.169 542.896C188.705 543.168 188.337 543.556 188.065 544.06C187.801 544.556 187.669 545.14 187.669 545.812C187.669 546.476 187.801 547.06 188.065 547.564C188.337 548.068 188.705 548.456 189.169 548.728C189.641 549 190.169 549.136 190.753 549.136Z" fill="#373737"/>
<path d="M205.143 541.636V542.524H202.863V550H201.771V542.524H199.479V541.636H205.143Z" fill="#373737"/>
<path d="M211.179 542.524V545.32H214.227V546.22H211.179V549.1H214.587V550H210.087V541.624H214.587V542.524H211.179Z" fill="#373737"/>
<path d="M224.027 545.692C224.331 545.74 224.607 545.864 224.855 546.064C225.111 546.264 225.311 546.512 225.455 546.808C225.607 547.104 225.683 547.42 225.683 547.756C225.683 548.18 225.575 548.564 225.359 548.908C225.143 549.244 224.827 549.512 224.411 549.712C224.003 549.904 223.519 550 222.959 550H219.839V541.636H222.839C223.407 541.636 223.891 541.732 224.291 541.924C224.691 542.108 224.991 542.36 225.191 542.68C225.391 543 225.491 543.36 225.491 543.76C225.491 544.256 225.355 544.668 225.083 544.996C224.819 545.316 224.467 545.548 224.027 545.692ZM220.931 545.248H222.767C223.279 545.248 223.675 545.128 223.955 544.888C224.235 544.648 224.375 544.316 224.375 543.892C224.375 543.468 224.235 543.136 223.955 542.896C223.675 542.656 223.271 542.536 222.743 542.536H220.931V545.248ZM222.863 549.1C223.407 549.1 223.831 548.972 224.135 548.716C224.439 548.46 224.591 548.104 224.591 547.648C224.591 547.184 224.431 546.82 224.111 546.556C223.791 546.284 223.363 546.148 222.827 546.148H220.931V549.1H222.863Z" fill="#373737"/>
<path d="M234.591 550.084C233.815 550.084 233.107 549.904 232.467 549.544C231.827 549.176 231.319 548.668 230.943 548.02C230.575 547.364 230.391 546.628 230.391 545.812C230.391 544.996 230.575 544.264 230.943 543.616C231.319 542.96 231.827 542.452 232.467 542.092C233.107 541.724 233.815 541.54 234.591 541.54C235.375 541.54 236.087 541.724 236.727 542.092C237.367 542.452 237.871 542.956 238.239 543.604C238.607 544.252 238.791 544.988 238.791 545.812C238.791 546.636 238.607 547.372 238.239 548.02C237.871 548.668 237.367 549.176 236.727 549.544C236.087 549.904 235.375 550.084 234.591 550.084ZM234.591 549.136C235.175 549.136 235.699 549 236.163 548.728C236.635 548.456 237.003 548.068 237.267 547.564C237.539 547.06 237.675 546.476 237.675 545.812C237.675 545.14 237.539 544.556 237.267 544.06C237.003 543.556 236.639 543.168 236.175 542.896C235.711 542.624 235.183 542.488 234.591 542.488C233.999 542.488 233.471 542.624 233.007 542.896C232.543 543.168 232.175 543.556 231.903 544.06C231.639 544.556 231.507 545.14 231.507 545.812C231.507 546.476 231.639 547.06 231.903 547.564C232.175 548.068 232.543 548.456 233.007 548.728C233.479 549 234.007 549.136 234.591 549.136Z" fill="#373737"/>
<path d="M247.624 550.084C246.848 550.084 246.14 549.904 245.5 549.544C244.86 549.176 244.352 548.668 243.976 548.02C243.608 547.364 243.424 546.628 243.424 545.812C243.424 544.996 243.608 544.264 243.976 543.616C244.352 542.96 244.86 542.452 245.5 542.092C246.14 541.724 246.848 541.54 247.624 541.54C248.408 541.54 249.12 541.724 249.76 542.092C250.4 542.452 250.904 542.956 251.272 543.604C251.64 544.252 251.824 544.988 251.824 545.812C251.824 546.636 251.64 547.372 251.272 548.02C250.904 548.668 250.4 549.176 249.76 549.544C249.12 549.904 248.408 550.084 247.624 550.084ZM247.624 549.136C248.208 549.136 248.732 549 249.196 548.728C249.668 548.456 250.036 548.068 250.3 547.564C250.572 547.06 250.708 546.476 250.708 545.812C250.708 545.14 250.572 544.556 250.3 544.06C250.036 543.556 249.672 543.168 249.208 542.896C248.744 542.624 248.216 542.488 247.624 542.488C247.032 542.488 246.504 542.624 246.04 542.896C245.576 543.168 245.208 543.556 244.936 544.06C244.672 544.556 244.54 545.14 244.54 545.812C244.54 546.476 244.672 547.06 244.936 547.564C245.208 548.068 245.576 548.456 246.04 548.728C246.512 549 247.04 549.136 247.624 549.136Z" fill="#373737"/>
<path d="M261.402 550L257.958 546.184V550H256.866V541.636H257.958V545.512L261.414 541.636H262.794L259.002 545.824L262.83 550H261.402Z" fill="#373737"/>
<path fill-rule="evenodd" clip-rule="evenodd" d="M19 29V19H20V29H19ZM19 69V49H20V69H19ZM19 109L19 89H20L20 109H19ZM19 149V129H20V149H19ZM19 189V169H20V189H19ZM19 229L19 209H20L20 229H19ZM19 269V249H20V269H19ZM19 309V289H20V309H19ZM19 349L19 329H20L20 349H19ZM19 389V369H20V389H19ZM19 429V409H20V429H19ZM19 469L19 449H20L20 469H19ZM19 509V489H20V509H19ZM19 549V529H20V549H19ZM19 589L19 569H20L20 589H19ZM19 619V609H20V619H19Z" fill="#373737"/>
<path d="M19 27C19 22.5817 22.5817 19 27 19H407C413.627 19 419 24.3726 419 31V607C419 613.627 413.627 619 407 619H27C22.5817 619 19 615.418 19 611V27Z" fill="url(#paint0_linear)" fill-opacity="0.2"/>
<g opacity="0.4" filter="url(#filter1_f)">
<path d="M420 30.9524C420 30.9524 419.062 26.8846 417.5 24.746C415.938 22.6074 412 20 412 20V618C412 618 415.938 615.758 417.5 613.619C419.062 611.48 420 607.048 420 607.048V30.9524Z" fill="url(#paint1_linear)"/>
</g>
<g opacity="0.4" filter="url(#filter2_f)">
<path d="M19.0014 29.4893C19.0014 29.4893 19.0038 20.0001 19.0019 19.5C19 19 27.0014 19 27.0014 19V618.5C27.0014 618.5 19 619 19 618.5C19 618 19.0014 607.511 19.0014 607.511V29.4893Z" fill="url(#paint2_linear)"/>
</g>
<defs>
<filter id="filter0_dd" x="0" y="0" width="450" height="650" filterUnits="userSpaceOnUse" color-interpolation-filters="sRGB">
<feFlood flood-opacity="0" result="BackgroundImageFix"/>
<feColorMatrix in="SourceAlpha" type="matrix" values="0 0 0 0 0 0 0 0 0 0 0 0 0 0 0 0 0 0 127 0"/>
<feMorphology radius="10" operator="dilate" in="SourceAlpha" result="effect1_dropShadow"/>
<feOffset dx="6" dy="6"/>
<feGaussianBlur stdDeviation="7.5"/>
<feColorMatrix type="matrix" values="0 0 0 0 0 0 0 0 0 0 0 0 0 0 0 0 0 0 0.1 0"/>
<feBlend mode="normal" in2="BackgroundImageFix" result="effect1_dropShadow"/>
<feColorMatrix in="SourceAlpha" type="matrix" values="0 0 0 0 0 0 0 0 0 0 0 0 0 0 0 0 0 0 127 0"/>
<feOffset dy="4"/>
<feGaussianBlur stdDeviation="2"/>
<feColorMatrix type="matrix" values="0 0 0 0 0 0 0 0 0 0 0 0 0 0 0 0 0 0 0.25 0"/>
<feBlend mode="normal" in2="effect1_dropShadow" result="effect2_dropShadow"/>
<feBlend mode="normal" in="SourceGraphic" in2="effect2_dropShadow" result="shape"/>
</filter>
<filter id="filter1_f" x="411.5" y="19.5" width="9" height="599" filterUnits="userSpaceOnUse" color-interpolation-filters="sRGB">
<feFlood flood-opacity="0" result="BackgroundImageFix"/>
<feBlend mode="normal" in="SourceGraphic" in2="BackgroundImageFix" result="shape"/>
<feGaussianBlur stdDeviation="0.25" result="effect1_foregroundBlur"/>
</filter>
<filter id="filter2_f" x="18.5" y="18.5" width="9.00143" height="600.722" filterUnits="userSpaceOnUse" color-interpolation-filters="sRGB">
<feFlood flood-opacity="0" result="BackgroundImageFix"/>
<feBlend mode="normal" in="SourceGraphic" in2="BackgroundImageFix" result="shape"/>
<feGaussianBlur stdDeviation="0.25" result="effect1_foregroundBlur"/>
</filter>
<linearGradient id="paint0_linear" x1="419" y1="619" x2="-40.9491" y2="76.8709" gradientUnits="userSpaceOnUse">
<stop stop-opacity="0.2"/>
<stop offset="0.338542" stop-opacity="0"/>
<stop offset="0.630208" stop-color="white" stop-opacity="0"/>
<stop offset="1" stop-color="white" stop-opacity="0.3"/>
</linearGradient>
<linearGradient id="paint1_linear" x1="412" y1="288.042" x2="420" y2="288.042" gradientUnits="userSpaceOnUse">
<stop stop-color="#BBAEAE" stop-opacity="0.47"/>
<stop offset="0.614583" stop-color="#857A7A"/>
</linearGradient>
<linearGradient id="paint2_linear" x1="27" y1="287.938" x2="19" y2="287.938" gradientUnits="userSpaceOnUse">
<stop stop-color="#BBAEAE" stop-opacity="0.51"/>
<stop offset="0.614583" stop-color="#857A7A"/>
</linearGradient>
</defs>
</svg>
