<svg width="42" height="42" viewBox="0 0 42 42" fill="none" xmlns="http://www.w3.org/2000/svg">
<path fill-rule="evenodd" clip-rule="evenodd" d="M12.9996 0.489746C11.8951 0.489746 10.9996 1.38518 10.9996 2.48975V10.4339H1C0.447715 10.4339 0 10.8816 0 11.4339V40.7398C0 41.2921 0.447716 41.7398 1 41.7398H41C41.5523 41.7398 42 41.2921 42 40.7398V11.4339C42 10.8816 41.5523 10.4339 41 10.4339H30.9996V2.48975C30.9996 1.38518 30.1042 0.489746 28.9996 0.489746H12.9996ZM28.9996 10.4339V2.48975L12.9996 2.48975V10.4339H28.9996ZM2 39.7398V12.4339H40V39.7398H2Z" fill="#373737"/>
</svg>
