<svg width="36" height="36" viewBox="0 0 43 43" fill="none" xmlns="http://www.w3.org/2000/svg">
<path fill-rule="evenodd" clip-rule="evenodd" d="M34.593 15.8275C35.3157 15.887 35.8547 16.5187 35.797 17.2415C35.7865 17.3605 34.838 29.1047 34.292 34.031C33.9525 37.0882 31.933 38.9485 28.8845 39.0045C26.5517 39.0447 24.3012 39.0675 22.1015 39.0675C19.7302 39.0675 17.4185 39.0412 15.1312 38.994C12.2052 38.9362 10.1805 37.0392 9.84972 34.0432C9.29847 29.0732 8.35522 17.3587 8.34647 17.2415C8.28697 16.5187 8.82597 15.8852 9.54872 15.8275C10.261 15.8082 10.905 16.3087 10.9627 17.0297C10.9683 17.1057 11.3539 21.8895 11.7741 26.6227L11.8585 27.5673C12.0702 29.9199 12.2847 32.1806 12.459 33.7545C12.6462 35.4572 13.565 36.3357 15.1855 36.369C19.5605 36.4617 24.0247 36.467 28.8372 36.3795C30.5592 36.3462 31.4902 35.4852 31.6827 33.7422C32.2252 28.8527 33.1702 17.1487 33.1807 17.0297C33.2385 16.3087 33.8772 15.8047 34.593 15.8275ZM25.7744 4.06799C27.3809 4.06799 28.7931 5.15124 29.2079 6.70349L29.6524 8.91024C29.796 9.63365 30.4308 10.1619 31.1659 10.1735L36.9089 10.1737C37.6334 10.1737 38.2214 10.7617 38.2214 11.4862C38.2214 12.2107 37.6334 12.7987 36.9089 12.7987L31.2172 12.7985C31.2084 12.7987 31.1995 12.7987 31.1906 12.7987L31.1479 12.797L12.9928 12.7985C12.9786 12.7987 12.9645 12.7987 12.9504 12.7987L12.9234 12.797L7.23242 12.7987C6.50792 12.7987 5.91992 12.2107 5.91992 11.4862C5.91992 10.7617 6.50792 10.1737 7.23242 10.1737L12.9742 10.172L13.151 10.1608C13.8095 10.0754 14.3567 9.57524 14.4904 8.91024L14.9156 6.78224C15.3479 5.15124 16.7601 4.06799 18.3666 4.06799H25.7744ZM25.7744 6.69299H18.3666C17.9466 6.69299 17.5774 6.97474 17.4706 7.37899L17.0629 9.42649C17.011 9.68584 16.9356 9.93577 16.839 10.1742H27.3025C27.2058 9.93577 27.1302 9.68584 27.0781 9.42649L26.6529 7.29849C26.5636 6.97474 26.1944 6.69299 25.7744 6.69299Z" fill="#373737"/>
</svg>
